<svg width="17" height="20" viewBox="0 0 17 20" fill="none" xmlns="http://www.w3.org/2000/svg">
<path fill-rule="evenodd" clip-rule="evenodd" d="M9.50002 16.4712L15.2705 10.3161C15.6482 9.91315 16.281 9.89273 16.6839 10.2705C17.0869 10.6482 17.1073 11.281 16.7295 11.6839L9.22954 19.6839C9.04049 19.8856 8.77641 20 8.5 20C8.22359 20 7.95951 19.8856 7.77047 19.6839L0.270466 11.6839C-0.107264 11.281 -0.0868501 10.6482 0.316062 10.2705C0.718974 9.89273 1.35181 9.91315 1.72954 10.3161L7.50002 16.4712L7.50002 1C7.50002 0.447716 7.94773 0 8.50002 0C9.0523 0 9.50002 0.447716 9.50002 1L9.50002 16.4712Z" fill="white"/>
</svg>
